Coordinates
version=1
nRows=8
nColumns=40
inDegrees=yes

Units are S.I. units (second, meters, Newtons, ...)
If the header above contains a line with 'inDegrees', this indicates whether rotational values are in degrees (yes) or radians (no).

endheader
time	pelvis_tilt	pelvis_list	pelvis_rotation	pelvis_tx	pelvis_ty	pelvis_tz	hip_flexion_r	hip_adduction_r	hip_rotation_r	knee_angle_r	knee_angle_r_beta	ankle_angle_r	subtalar_angle_r	mtp_angle_r	hip_flexion_l	hip_adduction_l	hip_rotation_l	knee_angle_l	knee_angle_l_beta	ankle_angle_l	subtalar_angle_l	mtp_angle_l	lumbar_extension	lumbar_bending	lumbar_rotation	arm_flex_r	arm_add_r	arm_rot_r	elbow_flex_r	pro_sup_r	wrist_flex_r	wrist_dev_r	arm_flex_l	arm_add_l	arm_rot_l	elbow_flex_l	pro_sup_l	wrist_flex_l	wrist_dev_l
      4.25000000	     -4.63891028	      4.87151655	     -2.38364279	      0.96517703	      1.04611092	     -0.53311835	     29.42861749	    -10.73865434	      2.86549945	     68.98353382	      1.20398979	     -4.61923973	      0.00000000	      0.00000000	     15.13016338	      5.96375824	     -9.90850918	     20.34792640	      0.35513831	      6.35443561	      0.00000000	      0.00000000	     -4.86959606	     -4.12479262	      7.08089285	    -11.20283486	     -3.55506875	    -21.72245374	     44.12971913	     70.45152794	      0.00000000	      0.00000000	     -2.05090569	     -4.08375208	      0.67574577	     42.46059465	     65.65085557	      0.00000000	      0.00000000
      4.26000000	     -4.43456473	      4.76529677	     -2.20375516	      0.96433537	      1.04795677	     -0.53386393	     30.31256544	    -10.87570592	      2.17474273	     67.89778573	      1.18503992	     -3.77438500	      0.00000000	      0.00000000	     13.53837839	      6.11038464	     -9.66606362	     19.20204309	      0.33513888	      6.32758617	      0.00000000	      0.00000000	     -5.24227537	     -3.90080540	      6.71403298	    -11.69020820	     -3.44140211	    -22.26680742	     42.78340801	     69.48062995	      0.00000000	      0.00000000	     -1.74904021	     -4.02979840	      0.24024423	     44.28379076	     65.34410682	      0.00000000	      0.00000000
      4.27000000	     -4.56780580	      4.50729808	     -2.16138831	      0.96350172	      1.04911939	     -0.53441101	     31.45085918	    -10.65076312	      1.69434947	     66.50888597	      1.16079904	     -2.81209765	      0.00000000	      0.00000000	     12.38416382	      6.02918966	     -9.32545280	     18.22942020	      0.31816340	      6.59028639	      0.00000000	      0.00000000	     -5.16391873	     -3.46941305	      6.64896499	    -12.45853856	     -3.41262558	    -22.64131130	     41.88696549	     68.92278940	      0.00000000	      0.00000000	     -1.44179537	     -3.95314813	      0.06692141	     45.76846499	     65.17411990	      0.00000000	      0.00000000
      4.28000000	     -4.72973160	      4.44261542	     -2.12552415	      0.96273799	      1.04987357	     -0.53509143	     32.57940480	    -10.80672517	      1.01392996	     64.91826006	      1.13303738	     -2.25727130	      0.00000000	      0.00000000	     11.50046141	      6.08278058	     -9.36620926	     17.75169501	      0.30982553	      6.79443365	      0.00000000	      0.00000000	     -4.99619596	     -3.25312918	      6.79180234	    -13.45041879	     -3.38485986	    -22.79821856	     41.26899536	     68.66865588	      0.00000000	      0.00000000	     -0.94461400	     -3.85618804	     -0.07186619	     46.84094003	     65.08435893	      0.00000000	      0.00000000
      4.29000000	     -4.41136294	      4.27970729	     -2.05258700	      0.96231311	      1.05118456	     -0.53569003	     32.95962451	    -10.90554604	      0.18265295	     63.07872355	      1.10093141	     -1.09208850	      0.00000000	      0.00000000	      9.46266979	      6.22483716	     -8.66173087	     15.96480448	      0.27863840	      6.57905851	      0.00000000	      0.00000000	     -5.48835270	     -3.00280094	      6.12182049	    -13.65859963	     -3.48606944	    -22.55147682	     39.87857112	     64.22589726	      0.00000000	      0.00000000	     -1.19282770	     -3.82738634	     -0.79877040	     49.51905440	     64.19794118	      0.00000000	      0.00000000
      4.30000000	     -4.36332828	      4.15968478	     -1.95370347	      0.96147983	      1.05180830	     -0.53625918	     33.57554450	    -11.02334861	     -0.63242151	     61.00944639	      1.06481571	     -0.28737401	      0.00000000	      0.00000000	      8.10844724	      6.29019611	     -8.24200079	     14.93237674	      0.26061914	      6.47821850	      0.00000000	      0.00000000	     -5.66878006	     -2.75002501	      6.05943242	    -14.36506426	     -3.41832614	    -23.04337458	     39.13422922	     63.86276551	      0.00000000	      0.00000000	     -0.89745170	     -3.80271964	     -0.66076483	     51.17884307	     64.12492441	      0.00000000	      0.00000000
      4.31000000	     -4.33053535	      4.03867114	     -1.83915008	      0.96063839	      1.05218546	     -0.53675194	     34.08334246	    -11.12544050	     -1.49993445	     58.70719410	      1.02463383	      0.40669146	      0.00000000	      0.00000000	      6.79967594	      6.33017259	     -7.85014189	     13.95052158	      0.24348253	      6.37397065	      0.00000000	      0.00000000	     -5.83049180	     -2.51096308	      5.89891374	    -15.01302971	     -3.37912780	    -23.34541228	     38.44916283	     63.50731413	      0.00000000	      0.00000000	     -0.68581593	     -3.77731478	     -0.66782686	     52.92526086	     63.97700418	      0.00000000	      0.00000000
      4.32000000	     -4.57261835	      3.87137869	     -1.79314084	      0.95976786	      1.05194912	     -0.53708256	     34.79584998	    -11.04022376	     -2.25937669	     56.17984331	      0.98052324	      1.00963468	      0.00000000	      0.00000000	      5.89296586	      6.25087497	     -7.66703144	     13.16761133	      0.22981817	      6.48804252	      0.00000000	      0.00000000	     -5.63705193	     -2.20070154	      5.89216011	    -15.79145717	     -3.35332181	    -23.59483104	     37.95839918	     63.32173003	      0.00000000	      0.00000000	     -0.49620017	     -3.75969454	     -0.58052931	     54.53320260	     63.92425469	      0.00000000	      0.00000000
